<mxfile host="app.diagrams.net" agent="Mozilla/5.0 (Windows NT 10.0; Win64; x64) AppleWebKit/537.36 (KHTML, like Gecko) Chrome/141.0.0.0 Safari/537.36" version="28.2.8">
  <diagram name="Trang-1" id="N_7mPoz157JD2_fJLh_e">
    <mxGraphModel dx="1042" dy="596" grid="1" gridSize="10" guides="1" tooltips="1" connect="1" arrows="1" fold="1" page="1" pageScale="1" pageWidth="827" pageHeight="1169" math="0" shadow="0">
      <root>
        <mxCell id="0" />
        <mxCell id="1" parent="0" />
        <mxCell id="Vt8-0gQIVWxEVlpJurFJ-27" value="" style="rounded=0;whiteSpace=wrap;html=1;" vertex="1" parent="1">
          <mxGeometry x="290" y="60" width="400" height="480" as="geometry" />
        </mxCell>
        <mxCell id="Vt8-0gQIVWxEVlpJurFJ-11" style="rounded=0;orthogonalLoop=1;jettySize=auto;html=1;" edge="1" parent="1" source="Vt8-0gQIVWxEVlpJurFJ-1" target="Vt8-0gQIVWxEVlpJurFJ-4">
          <mxGeometry relative="1" as="geometry" />
        </mxCell>
        <mxCell id="Vt8-0gQIVWxEVlpJurFJ-12" style="rounded=0;orthogonalLoop=1;jettySize=auto;html=1;" edge="1" parent="1" source="Vt8-0gQIVWxEVlpJurFJ-1" target="Vt8-0gQIVWxEVlpJurFJ-5">
          <mxGeometry relative="1" as="geometry" />
        </mxCell>
        <mxCell id="Vt8-0gQIVWxEVlpJurFJ-1" value="người dùng" style="shape=umlActor;verticalLabelPosition=bottom;verticalAlign=top;html=1;outlineConnect=0;" vertex="1" parent="1">
          <mxGeometry x="200" y="150" width="30" height="60" as="geometry" />
        </mxCell>
        <mxCell id="Vt8-0gQIVWxEVlpJurFJ-15" style="rounded=0;orthogonalLoop=1;jettySize=auto;html=1;" edge="1" parent="1" source="Vt8-0gQIVWxEVlpJurFJ-2" target="Vt8-0gQIVWxEVlpJurFJ-4">
          <mxGeometry relative="1" as="geometry" />
        </mxCell>
        <mxCell id="Vt8-0gQIVWxEVlpJurFJ-2" value="admin&lt;div&gt;&lt;br&gt;&lt;/div&gt;" style="shape=umlActor;verticalLabelPosition=bottom;verticalAlign=top;html=1;outlineConnect=0;" vertex="1" parent="1">
          <mxGeometry x="200" y="310" width="30" height="60" as="geometry" />
        </mxCell>
        <mxCell id="Vt8-0gQIVWxEVlpJurFJ-4" value="đăng nhập" style="ellipse;whiteSpace=wrap;html=1;" vertex="1" parent="1">
          <mxGeometry x="315" y="110" width="140" height="80" as="geometry" />
        </mxCell>
        <mxCell id="Vt8-0gQIVWxEVlpJurFJ-13" style="rounded=0;orthogonalLoop=1;jettySize=auto;html=1;entryX=0.5;entryY=0;entryDx=0;entryDy=0;" edge="1" parent="1" source="Vt8-0gQIVWxEVlpJurFJ-5" target="Vt8-0gQIVWxEVlpJurFJ-6">
          <mxGeometry relative="1" as="geometry" />
        </mxCell>
        <mxCell id="Vt8-0gQIVWxEVlpJurFJ-14" value="include" style="edgeLabel;html=1;align=center;verticalAlign=middle;resizable=0;points=[];" vertex="1" connectable="0" parent="Vt8-0gQIVWxEVlpJurFJ-13">
          <mxGeometry x="-0.1778" relative="1" as="geometry">
            <mxPoint as="offset" />
          </mxGeometry>
        </mxCell>
        <mxCell id="Vt8-0gQIVWxEVlpJurFJ-5" value="nhập tin&amp;nbsp;" style="ellipse;whiteSpace=wrap;html=1;" vertex="1" parent="1">
          <mxGeometry x="320" y="240" width="130" height="80" as="geometry" />
        </mxCell>
        <mxCell id="Vt8-0gQIVWxEVlpJurFJ-25" style="edgeStyle=orthogonalEdgeStyle;rounded=0;orthogonalLoop=1;jettySize=auto;html=1;" edge="1" parent="1" source="Vt8-0gQIVWxEVlpJurFJ-6" target="Vt8-0gQIVWxEVlpJurFJ-21">
          <mxGeometry relative="1" as="geometry" />
        </mxCell>
        <mxCell id="Vt8-0gQIVWxEVlpJurFJ-6" value="truyền tin&amp;nbsp;" style="ellipse;whiteSpace=wrap;html=1;" vertex="1" parent="1">
          <mxGeometry x="325" y="410" width="120" height="80" as="geometry" />
        </mxCell>
        <mxCell id="Vt8-0gQIVWxEVlpJurFJ-8" style="edgeStyle=orthogonalEdgeStyle;rounded=0;orthogonalLoop=1;jettySize=auto;html=1;" edge="1" parent="1" source="Vt8-0gQIVWxEVlpJurFJ-7" target="Vt8-0gQIVWxEVlpJurFJ-5">
          <mxGeometry relative="1" as="geometry" />
        </mxCell>
        <mxCell id="Vt8-0gQIVWxEVlpJurFJ-9" value="extend" style="edgeLabel;html=1;align=center;verticalAlign=middle;resizable=0;points=[];" vertex="1" connectable="0" parent="Vt8-0gQIVWxEVlpJurFJ-8">
          <mxGeometry x="0.064" relative="1" as="geometry">
            <mxPoint as="offset" />
          </mxGeometry>
        </mxCell>
        <mxCell id="Vt8-0gQIVWxEVlpJurFJ-7" value="xóa tin&amp;nbsp;" style="ellipse;whiteSpace=wrap;html=1;" vertex="1" parent="1">
          <mxGeometry x="540" y="240" width="120" height="80" as="geometry" />
        </mxCell>
        <mxCell id="Vt8-0gQIVWxEVlpJurFJ-16" value="sửa tin" style="ellipse;whiteSpace=wrap;html=1;" vertex="1" parent="1">
          <mxGeometry x="540" y="120" width="120" height="80" as="geometry" />
        </mxCell>
        <mxCell id="Vt8-0gQIVWxEVlpJurFJ-17" style="rounded=0;orthogonalLoop=1;jettySize=auto;html=1;entryX=0.957;entryY=0.273;entryDx=0;entryDy=0;entryPerimeter=0;" edge="1" parent="1" source="Vt8-0gQIVWxEVlpJurFJ-16" target="Vt8-0gQIVWxEVlpJurFJ-5">
          <mxGeometry relative="1" as="geometry" />
        </mxCell>
        <mxCell id="Vt8-0gQIVWxEVlpJurFJ-18" value="entend" style="text;html=1;whiteSpace=wrap;strokeColor=none;fillColor=none;align=center;verticalAlign=middle;rounded=0;" vertex="1" parent="1">
          <mxGeometry x="470" y="200" width="60" height="30" as="geometry" />
        </mxCell>
        <mxCell id="Vt8-0gQIVWxEVlpJurFJ-21" value="hệ thống truyền tin&amp;nbsp;" style="shape=umlActor;verticalLabelPosition=bottom;verticalAlign=top;html=1;outlineConnect=0;" vertex="1" parent="1">
          <mxGeometry x="770" y="420" width="30" height="60" as="geometry" />
        </mxCell>
        <mxCell id="Vt8-0gQIVWxEVlpJurFJ-28" value="app zalo" style="text;html=1;whiteSpace=wrap;strokeColor=none;fillColor=none;align=center;verticalAlign=middle;rounded=0;" vertex="1" parent="1">
          <mxGeometry x="460" y="70" width="60" height="30" as="geometry" />
        </mxCell>
      </root>
    </mxGraphModel>
  </diagram>
</mxfile>
